<svg width="142" height="42" viewBox="0 0 142 42" fill="none" xmlns="http://www.w3.org/2000/svg">
  <g clip-path="url(#clip0_1_5076)">
    <path d="M0.922015 33.9482C1.17256 33.9148 1.44852 33.9 1.75353 33.9C2.28366 33.9 2.68308 34.0336 2.95178 34.3046C3.22048 34.5756 3.35483 34.9728 3.35483 35.5036C3.35483 36.0642 3.19143 36.5097 2.86826 36.8438C2.5451 37.1778 2.10937 37.3449 1.56108 37.3449C1.33233 37.3449 1.11809 37.3338 0.918384 37.3078V33.9445L0.922015 33.9482ZM0.0360354 41.4283C0.0215112 41.6362 0.010618 41.7773 -0.000275187 41.859C0.152229 41.8441 0.319258 41.8367 0.508074 41.8367C0.696889 41.8367 0.87118 41.8441 1.02005 41.859C1.0019 41.781 0.991005 41.6399 0.983743 41.4358C0.976481 41.2316 0.965588 40.8604 0.954695 40.3221C0.94017 39.5908 0.932908 38.7741 0.936539 37.8683H0.907491C1.15803 37.9129 1.43763 37.9351 1.75353 37.9277C2.56689 37.9277 3.19506 37.7124 3.64168 37.2781C4.0883 36.8437 4.3098 36.2349 4.3098 35.448C4.3098 34.7167 4.12098 34.1784 3.74335 33.8257C3.36572 33.4731 2.78475 33.2986 2.00044 33.2986C1.88062 33.2986 1.7499 33.2986 1.60829 33.3023C1.46667 33.3023 1.30691 33.3134 1.13262 33.3209C1.00553 33.3283 0.845763 33.332 0.656947 33.332C0.468132 33.332 0.246637 33.3283 -0.00390625 33.3209C0.00698694 33.4025 0.0178801 33.5436 0.0251423 33.7478C0.0324044 33.9519 0.0469286 34.3194 0.0614529 34.8503C0.0796082 35.6633 0.0868703 36.5728 0.0832393 37.5788C0.0832393 38.5885 0.0759771 39.5017 0.0614529 40.3258C0.0432976 40.8567 0.0360354 41.2242 0.0324044 41.4246L0.0360354 41.4283Z"
          fill="white"/>
    <path d="M4.67626 40.4408C4.68352 39.6798 4.68715 38.8297 4.68715 37.8943C4.68715 36.9588 4.68352 36.0938 4.67626 35.344C4.66174 34.8502 4.65084 34.5124 4.64358 34.3231C4.63632 34.1338 4.62906 34.0001 4.61816 33.9259C4.75251 33.9408 4.90139 33.9482 5.06842 33.9482C5.23544 33.9482 5.39158 33.9408 5.52593 33.9259C5.51141 34.0001 5.50051 34.1338 5.49325 34.3231C5.48599 34.5124 5.47873 34.854 5.46783 35.344C5.46057 36.1013 5.45694 36.9514 5.45694 37.8905C5.45694 38.8297 5.46057 39.6873 5.46783 40.4408C5.47873 40.9309 5.48599 41.2724 5.49325 41.4617C5.50051 41.651 5.51141 41.7847 5.52593 41.8589C5.39158 41.8441 5.23908 41.8366 5.06842 41.8366C4.89776 41.8366 4.75251 41.8441 4.61816 41.8589C4.62906 41.7847 4.63995 41.651 4.65084 41.458C4.65084 41.2687 4.66174 40.9309 4.67626 40.4371V40.4408Z"
          fill="white"/>
    <path d="M7.80342 40.4409C7.81069 39.6799 7.81432 38.8298 7.81432 37.8944C7.81795 36.5839 7.80706 35.4554 7.78164 34.5125L7.31323 34.52C7.01911 34.52 6.725 34.5311 6.42725 34.5459C6.13313 34.5645 5.93343 34.5868 5.82812 34.6128C5.84265 34.5051 5.84991 34.3789 5.84991 34.2341C5.84991 34.0893 5.84265 33.9668 5.82812 33.8555C6.15855 33.8815 6.53255 33.9037 6.94649 33.9223C7.36043 33.9408 7.67997 33.9483 7.90509 33.9483H8.36624C8.60952 33.9483 8.93632 33.9408 9.35026 33.9223C9.7642 33.9037 10.1273 33.8815 10.4396 33.8555C10.4251 33.9631 10.4178 34.0893 10.4178 34.2341C10.4178 34.3789 10.4251 34.5014 10.4396 34.6128C10.3306 34.5868 10.1273 34.5645 9.83319 34.5459C9.53907 34.5274 9.24859 34.52 8.9581 34.52H8.61315C8.59863 35.4591 8.59136 36.5839 8.59136 37.8906C8.59136 38.8373 8.595 39.6874 8.60226 40.4447C8.61315 40.9384 8.62041 41.2799 8.62768 41.4692C8.63494 41.6585 8.64583 41.7922 8.66036 41.8664C8.52601 41.8516 8.3735 41.8442 8.20284 41.8442C8.03218 41.8442 7.88694 41.8516 7.75259 41.8664C7.76348 41.7922 7.77438 41.6585 7.78527 41.4655C7.78527 41.2762 7.79616 40.9384 7.81069 40.4447L7.80342 40.4409Z"
          fill="white"/>
    <path d="M12.1237 40.4409C12.131 39.6799 12.1346 38.8298 12.1346 37.8944C12.1383 36.5839 12.1274 35.4554 12.102 34.5125L11.6335 34.52C11.3394 34.52 11.0453 34.5311 10.7476 34.5459C10.4534 34.5645 10.2537 34.5868 10.1484 34.6128C10.163 34.5051 10.1702 34.3789 10.1702 34.2341C10.1702 34.0893 10.163 33.9668 10.1484 33.8555C10.4789 33.8815 10.8529 33.9037 11.2668 33.9223C11.6807 33.9408 12.0003 33.9483 12.2254 33.9483H12.6866C12.9298 33.9483 13.2566 33.9408 13.6706 33.9223C14.0845 33.9037 14.4476 33.8815 14.7599 33.8555C14.7454 33.9631 14.7381 34.0893 14.7381 34.2341C14.7381 34.3789 14.7454 34.5014 14.7599 34.6128C14.651 34.5868 14.4476 34.5645 14.1535 34.5459C13.8594 34.5274 13.5689 34.52 13.2784 34.52H12.9335C12.9189 35.4591 12.9117 36.5839 12.9117 37.8906C12.9117 38.8373 12.9153 39.6874 12.9226 40.4447C12.9335 40.9384 12.9407 41.2799 12.948 41.4692C12.9552 41.6585 12.9661 41.7922 12.9807 41.8664C12.8463 41.8516 12.6938 41.8442 12.5232 41.8442C12.3525 41.8442 12.2073 41.8516 12.0729 41.8664C12.0838 41.7922 12.0947 41.6585 12.1056 41.4655C12.1056 41.2762 12.1165 40.9384 12.131 40.4447L12.1237 40.4409Z"
          fill="white"/>
    <path d="M17.7229 35.1732C17.6031 34.8911 17.4433 34.6758 17.2472 34.5199C17.0512 34.364 16.8369 34.286 16.6082 34.286C16.2778 34.286 16.0091 34.4159 15.7985 34.6721C15.5879 34.9282 15.4826 35.2586 15.4826 35.6595C15.4826 36.0159 15.5842 36.324 15.7839 36.5764C15.9909 36.8289 16.3141 37.0516 16.7534 37.2446C17.3126 37.4897 17.7084 37.7866 17.9408 38.1356C18.1768 38.4808 18.293 38.9411 18.293 39.5165C18.293 40.2144 18.0969 40.8009 17.7084 41.2798C17.3199 41.7587 16.8406 42 16.2778 42C15.9219 42 15.6096 41.9406 15.3446 41.8181C15.0795 41.6993 14.8616 41.5211 14.6982 41.2873C14.7309 41.1313 14.7563 41.0014 14.7745 40.89C14.7926 40.7787 14.8108 40.645 14.829 40.4928L14.9669 40.4372C15.1013 40.7527 15.2974 41.0088 15.5515 41.2056C15.8057 41.4023 16.0708 41.5026 16.3467 41.5026C16.7244 41.5026 17.033 41.3504 17.2727 41.046C17.5123 40.7416 17.6321 40.3481 17.6321 39.8692C17.6321 39.4757 17.5305 39.149 17.3308 38.8817C17.1274 38.6145 16.8043 38.3806 16.3613 38.1876C15.7948 37.9388 15.3954 37.6456 15.1558 37.3003C14.9161 36.9625 14.7963 36.5096 14.7963 35.9454C14.7963 35.344 14.9706 34.8317 15.3192 34.4159C15.6677 34.0002 16.0962 33.7886 16.6046 33.7886C16.8769 33.7886 17.1347 33.8331 17.3743 33.9185C17.6176 34.0039 17.8391 34.1338 18.0425 34.3009C17.9989 34.4679 17.9626 34.609 17.9335 34.7278C17.9045 34.8466 17.8791 34.995 17.8464 35.1658L17.7193 35.1732H17.7229Z"
          fill="white"/>
    <path d="M19.7674 34.583C19.9743 34.5347 20.1995 34.5124 20.4427 34.5161C20.8857 34.5161 21.2416 34.6349 21.503 34.8725C21.7681 35.1101 21.8988 35.4294 21.8988 35.8266C21.8988 36.2869 21.7536 36.6544 21.4667 36.9291C21.1798 37.2038 20.795 37.3449 20.3157 37.3449H19.7674V34.583ZM18.9431 41.4654C18.9358 41.6584 18.925 41.7884 18.9141 41.8589L19.3498 41.8366L20.4899 41.8589C21.227 41.8589 21.8262 41.651 22.2873 41.2353C22.7448 40.8195 22.9772 40.2775 22.9772 39.6093C22.9772 38.9077 22.7775 38.3806 22.3817 38.0316C22.1167 37.794 21.7608 37.6381 21.3178 37.5564C21.6301 37.4636 21.9024 37.3152 22.1348 37.111C22.5596 36.7361 22.7739 36.246 22.7739 35.6484C22.7739 35.0507 22.596 34.6424 22.2437 34.3565C21.8879 34.0707 21.3541 33.9259 20.6424 33.9259L19.3534 33.9482L18.9177 33.9259C18.9286 33.9964 18.9395 34.1264 18.9467 34.3157C18.954 34.505 18.9649 34.8465 18.9758 35.344C18.9867 36.0938 18.9903 36.9439 18.9867 37.8943C18.9867 38.8297 18.9831 39.6761 18.9758 40.4408C18.9649 40.9346 18.954 41.2761 18.9467 41.4654H18.9431ZM19.7674 37.9388H20.3592C20.9293 37.9388 21.3614 38.0687 21.6555 38.3286C21.9496 38.5884 22.0949 38.9782 22.0949 39.4905C22.0949 40.077 21.946 40.5188 21.6446 40.8158C21.3432 41.1128 20.9039 41.265 20.3157 41.265C20.1232 41.265 19.938 41.2501 19.7674 41.213V37.9351V37.9388Z"
          fill="white"/>
    <path d="M29.0336 38.4028C29.0336 39.5796 28.8158 40.4742 28.3764 41.0831C27.9371 41.6919 27.2944 42 26.4483 42C25.6023 42 24.9523 41.7401 24.5384 41.2167C24.1244 40.6933 23.9175 39.8877 23.9175 38.7963V37.9796L23.9066 35.3477C23.8993 34.8799 23.8921 34.5533 23.8884 34.3639C23.8848 34.1746 23.8739 34.0298 23.8594 33.9259C23.9937 33.9408 24.1462 33.9482 24.3169 33.9482C24.4875 33.9482 24.6437 33.9408 24.778 33.9259C24.7599 34.0298 24.749 34.1783 24.7381 34.3677C24.7308 34.557 24.7199 34.8837 24.709 35.3477C24.6945 36.1272 24.6873 37.0033 24.6873 37.9759V38.4437C24.6873 39.446 24.847 40.1921 25.1593 40.6747C25.4679 41.1573 25.9472 41.3986 26.5936 41.3986C27.2399 41.3986 27.7628 41.1424 28.075 40.6302C28.3873 40.1179 28.5398 39.3123 28.5362 38.2061V37.9796L28.5253 35.3477C28.5217 34.8651 28.518 34.531 28.5108 34.3417C28.5035 34.1523 28.4962 34.015 28.4781 33.9259C28.5761 33.9408 28.6887 33.9482 28.8085 33.9482C28.9283 33.9482 29.0336 33.9408 29.1353 33.9259C29.1135 34.0558 29.099 34.2192 29.0917 34.4085C29.0845 34.5978 29.07 34.9096 29.0591 35.3477C29.0445 36.1272 29.0373 37.0033 29.0373 37.9759V38.4028H29.0336Z"
          fill="white"/>
    <path d="M30.878 34.4864C31.1031 34.4642 31.3537 34.4493 31.6296 34.4456C32.1017 34.4456 32.4648 34.5644 32.7153 34.8057C32.9695 35.047 33.0929 35.3922 33.0929 35.8414C33.0929 36.3277 32.9295 36.7175 32.6027 37.007C32.2759 37.2966 31.8366 37.4451 31.2883 37.4451C31.1467 37.4451 31.0087 37.4451 30.878 37.4599V34.4827V34.4864ZM30.061 41.4654C30.0537 41.6584 30.0428 41.7884 30.032 41.8589C30.1663 41.8441 30.3224 41.8366 30.4967 41.8366C30.671 41.8366 30.8235 41.8441 30.9615 41.8589C30.9506 41.7847 30.9397 41.651 30.9325 41.4617C30.9252 41.2724 30.9143 40.9309 30.9034 40.4408C30.8889 39.7058 30.8816 38.878 30.8816 37.9611H30.8707H31.1794C31.488 38.4251 31.833 38.9782 32.2215 39.613L32.7226 40.4408C32.9622 40.8195 33.1329 41.1053 33.2418 41.2946C33.3471 41.484 33.4415 41.6733 33.5178 41.8626C33.6812 41.8478 33.8664 41.8403 34.0806 41.8403C34.2948 41.8403 34.4836 41.8478 34.6434 41.8626C34.6107 41.8218 34.5308 41.7067 34.4038 41.5174C34.2767 41.3281 34.0443 40.9717 33.6993 40.4446L33.2091 39.6724C32.7879 39.0005 32.4248 38.4065 32.1234 37.8943C32.5555 37.8015 32.9332 37.627 33.2491 37.3708C33.7393 36.9699 33.9825 36.4465 33.9825 35.8006C33.9825 35.1546 33.8155 34.7092 33.4851 34.3974C33.1547 34.0855 32.6572 33.9296 31.9891 33.9296C31.8838 33.9296 31.7603 33.9296 31.626 33.9333C31.488 33.9333 31.3391 33.9408 31.1721 33.9519C31.0704 33.9593 30.9216 33.9593 30.7327 33.9519C30.5439 33.9482 30.3079 33.937 30.0283 33.9259C30.0392 33.9964 30.0501 34.1264 30.0574 34.3157C30.0646 34.505 30.0755 34.8465 30.0864 35.344C30.0937 36.0938 30.0973 36.9439 30.0973 37.8943C30.0973 38.8446 30.0937 39.6761 30.0864 40.4408C30.0755 40.9346 30.0646 41.2761 30.0574 41.4654H30.061Z"
          fill="white"/>
    <path d="M37.7264 42C36.7533 42 35.9653 41.6325 35.3589 40.9012C34.7562 40.1699 34.4512 39.2121 34.4512 38.0316C34.4512 36.7695 34.7634 35.7486 35.3844 34.9653C36.0053 34.1821 36.8186 33.7886 37.8244 33.7886C38.2928 33.7886 38.7213 33.848 39.1135 33.963C39.5056 34.0781 39.8832 34.26 40.2391 34.5013C40.1919 34.6832 40.1519 34.8391 40.1229 34.9728C40.0938 35.1064 40.0648 35.2697 40.0357 35.4591L39.8869 35.4702C39.64 35.1101 39.3422 34.8206 38.9864 34.609C38.6305 34.3937 38.2783 34.286 37.9261 34.286C37.1599 34.286 36.5427 34.6238 36.0779 35.2957C35.6131 35.9714 35.3807 36.8697 35.3807 37.9982C35.3807 39.0599 35.6131 39.91 36.0779 40.5485C36.5427 41.1833 37.1599 41.5026 37.9261 41.5026C38.4236 41.5026 38.921 41.3763 39.4185 41.1202V40.3184C39.4185 39.8024 39.4112 39.4052 39.4003 39.1193C39.3894 38.8372 39.364 38.5254 39.3277 38.1838C39.462 38.1987 39.6182 38.2061 39.7961 38.2061C39.974 38.2061 40.1302 38.1987 40.2681 38.1838C40.2427 38.3138 40.2246 38.4771 40.2173 38.6664C40.21 38.8558 40.2028 39.1676 40.1955 39.6056V39.8135C40.1955 40.3443 40.1955 40.723 40.2064 40.9457C40.2173 41.1685 40.2282 41.3578 40.25 41.5026C39.5201 41.8329 38.6741 42 37.7191 42H37.7264Z"
          fill="white"/>
    <path d="M41.2632 40.4408C41.2777 39.6798 41.285 38.8297 41.285 37.8943C41.285 36.9588 41.2777 36.0938 41.2632 35.344C41.2523 34.8502 41.2414 34.5124 41.2341 34.3231C41.2269 34.1338 41.216 34.0001 41.2051 33.9259C41.3431 33.9408 41.4992 33.9482 41.6699 33.9482C41.8405 33.9482 42.0003 33.9408 42.1346 33.9259C42.1237 33.9964 42.1128 34.1264 42.1056 34.3194C42.0983 34.5087 42.0874 34.854 42.0765 35.3477C42.0656 35.9305 42.0584 36.5616 42.0584 37.2446C42.5885 37.3077 43.1985 37.3374 43.8775 37.3374C44.5565 37.3374 45.1702 37.3077 45.7112 37.2446L45.6931 35.3477C45.6785 34.8502 45.6677 34.5087 45.6604 34.3194C45.6531 34.1301 45.6459 34.0001 45.635 33.9259C45.7693 33.9408 45.9182 33.9482 46.0852 33.9482C46.2523 33.9482 46.4084 33.9408 46.5427 33.9259C46.5282 34.0001 46.5173 34.1338 46.5101 34.3231C46.5028 34.5124 46.4955 34.854 46.4846 35.344C46.4774 36.1013 46.4737 36.9514 46.4737 37.8905C46.4701 38.8372 46.4738 39.6873 46.4846 40.4408C46.4955 40.9309 46.5028 41.2724 46.5101 41.4617C46.5173 41.651 46.5282 41.7847 46.5427 41.8589C46.4084 41.8441 46.2559 41.8366 46.0852 41.8366C45.9146 41.8366 45.7693 41.8441 45.635 41.8589C45.6459 41.7884 45.6531 41.6584 45.6604 41.4691C45.6677 41.2798 45.6785 40.9383 45.6931 40.4446C45.7076 39.717 45.7149 38.9077 45.7112 38.0093C45.1811 37.9425 44.5711 37.9128 43.8921 37.9165C43.2058 37.9165 42.5958 37.9462 42.0656 38.0093C42.0547 38.9077 42.0584 39.7207 42.0765 40.4446C42.0874 40.9383 42.0983 41.2798 42.1056 41.4691C42.1128 41.6584 42.1237 41.7884 42.1346 41.8589C42.0003 41.8441 41.8441 41.8366 41.6699 41.8366C41.4956 41.8366 41.3431 41.8441 41.2051 41.8589C41.216 41.7847 41.2269 41.651 41.2378 41.458C41.2414 41.2687 41.2486 40.9309 41.2595 40.4371L41.2632 40.4408Z"
          fill="white"/>
    <path d="M52.3307 34.635C52.2 34.3306 52.0294 34.093 51.8151 33.926C51.6045 33.7552 51.3721 33.6735 51.1216 33.6735C50.7657 33.6735 50.4716 33.8109 50.2465 34.0893C50.0177 34.3677 49.9052 34.7241 49.9052 35.1584C49.9052 35.5445 50.0141 35.8749 50.232 36.1459C50.4535 36.4206 50.8021 36.6581 51.2777 36.866C51.8805 37.1296 52.3089 37.4526 52.5631 37.8275C52.8173 38.2024 52.9444 38.6999 52.9444 39.3198C52.9444 40.0697 52.7338 40.7045 52.3126 41.2242C51.8914 41.7402 51.3758 42 50.7694 42C50.3845 42 50.0504 41.9369 49.7636 41.807C49.4767 41.6771 49.2443 41.4877 49.0664 41.2353C49.1027 41.0683 49.1281 40.9272 49.1499 40.8047C49.1681 40.6859 49.1899 40.5411 49.208 40.3741L49.3569 40.3332C49.5021 40.6673 49.7164 40.9383 49.9923 41.1499C50.2683 41.3578 50.5551 41.4655 50.8529 41.4655C51.2632 41.4655 51.5973 41.3021 51.8551 40.9717C52.1165 40.6414 52.2436 40.2182 52.2436 39.7022C52.2436 39.279 52.1347 38.9226 51.9168 38.633C51.6989 38.3435 51.3503 38.0948 50.871 37.8832C50.261 37.6159 49.8253 37.2966 49.5675 36.9254C49.3097 36.5616 49.179 36.0716 49.179 35.4628C49.179 34.8132 49.3678 34.2638 49.7418 33.8109C50.1194 33.3617 50.5769 33.1353 51.1252 33.1353C51.4193 33.1353 51.6953 33.1835 51.9567 33.2763C52.2182 33.3691 52.4578 33.5065 52.6757 33.6884C52.6285 33.8666 52.5885 34.0188 52.5595 34.1487C52.5304 34.2786 52.4978 34.4345 52.4687 34.6201L52.3307 34.635Z"
          fill="white"/>
    <path d="M55.1628 38.6033C54.8978 38.0019 54.5746 37.2966 54.1933 36.491L53.6305 35.344C53.3691 34.8168 53.1912 34.4605 53.0931 34.2711C52.9951 34.0818 52.9333 33.9667 52.9043 33.9259C53.0677 33.9408 53.2529 33.9482 53.4635 33.9482C53.6741 33.9482 53.8593 33.9408 54.0227 33.9259C54.0771 34.1375 54.1425 34.338 54.2115 34.5273C54.2841 34.7166 54.3967 34.9913 54.5564 35.3477L54.8941 36.1272C55.1882 36.7992 55.4497 37.3746 55.6821 37.8571V37.8497C55.9072 37.3931 56.1541 36.8511 56.4228 36.2275L56.8041 35.3477C56.942 35.0321 57.0473 34.7797 57.12 34.5904C57.189 34.4011 57.2579 34.1783 57.3233 33.9296C57.4431 33.9445 57.5738 33.9519 57.7227 33.9519C57.8716 33.9519 58.0023 33.9445 58.1149 33.9296C58.0858 33.9705 58.0205 34.0855 57.9261 34.2749C57.828 34.4642 57.6501 34.8205 57.3887 35.3477L56.8694 36.4131C56.5172 37.1518 56.2122 37.8052 55.9544 38.3731V39.0265C55.9544 39.9137 55.958 40.5448 55.9689 40.9197C55.9762 41.2984 55.9943 41.6102 56.0234 41.8626C55.8854 41.8478 55.7329 41.8403 55.5622 41.8403C55.3916 41.8403 55.2354 41.8478 55.1011 41.8626C55.1301 41.6102 55.1519 41.2984 55.1592 40.9197C55.1665 40.5411 55.1701 39.91 55.1701 39.0265V38.6107L55.1628 38.6033Z"
          fill="white"/>
    <path d="M58.7542 39.5871C58.6852 40.2664 58.6416 40.7564 58.6235 41.0608C58.6017 41.3615 58.5981 41.6288 58.609 41.859C58.5073 41.8441 58.3947 41.8367 58.2713 41.8367C58.1478 41.8367 58.0353 41.8441 57.9336 41.859C57.959 41.7625 57.9844 41.6177 58.0135 41.4284C58.0389 41.239 58.0825 40.9086 58.1406 40.4409L58.4347 37.8943C58.6053 36.3203 58.7324 35.0062 58.8196 33.9482H58.9793C59.4114 35.0248 59.967 36.3538 60.646 37.9352L61.63 40.1811H61.6264L64.2516 33.9482H64.4114C64.4731 35.0025 64.5821 36.3166 64.7273 37.8906C64.8108 38.8261 64.8907 39.6725 64.967 40.4298C65.0214 40.9086 65.0614 41.2465 65.0868 41.4358C65.1122 41.6251 65.134 41.7625 65.1558 41.8478C65.0251 41.833 64.8726 41.8256 64.7055 41.8256C64.5385 41.8256 64.3933 41.8293 64.2662 41.8367C64.2008 40.7787 64.0955 39.4646 63.9503 37.8832L63.7978 36.2313H63.7941C63.5654 36.7324 63.333 37.2707 63.0933 37.8535C62.4252 39.4349 61.8951 40.775 61.5066 41.8701H61.3468C60.9401 40.7936 60.41 39.4646 59.7564 37.8832L59.081 36.2572H59.0701L58.9104 37.8869L58.7542 39.5871Z"
          fill="white"/>
    <path d="M66.4991 34.5385C66.7351 34.5088 66.9965 34.4939 67.2797 34.4939C67.7772 34.4939 68.1548 34.6201 68.4054 34.8689C68.6595 35.1176 68.783 35.4888 68.783 35.9788C68.783 36.4948 68.6305 36.9106 68.3255 37.2187C68.0205 37.5268 67.6138 37.6827 67.0982 37.6827C66.8839 37.6827 66.6842 37.6716 66.4954 37.6493V34.5385H66.4991ZM65.7075 41.458C65.6966 41.6511 65.6857 41.781 65.6748 41.859C65.8092 41.8441 65.958 41.8367 66.1251 41.8367C66.2921 41.8367 66.4482 41.8441 66.5826 41.859C66.568 41.7884 66.5572 41.6585 66.5499 41.4655C66.5426 41.2761 66.5354 40.9309 66.5245 40.4372C66.51 39.7616 66.5027 39.0043 66.5063 38.169H66.51C66.7423 38.2099 67.0038 38.2284 67.2943 38.2247C68.0495 38.2247 68.6305 38.0242 69.0444 37.6196C69.4584 37.215 69.6653 36.6507 69.6653 35.9194C69.6653 35.2401 69.4911 34.7389 69.1425 34.4123C68.7939 34.0856 68.2565 33.9222 67.5266 33.9222C67.4177 33.9222 67.2943 33.9222 67.1635 33.926C67.0328 33.926 66.8839 33.9334 66.7242 33.9445C66.608 33.9519 66.4591 33.9557 66.2848 33.9557C66.1105 33.9557 65.9036 33.9557 65.6748 33.9445C65.6857 34.0188 65.693 34.1524 65.7002 34.3417C65.7075 34.531 65.7184 34.8726 65.7329 35.3626C65.7438 36.1162 65.7474 36.9588 65.7438 37.8906C65.7438 38.8261 65.7402 39.6725 65.7329 40.4372C65.7184 40.9272 65.7111 41.2687 65.7075 41.458Z"
          fill="white"/>
    <path d="M70.1011 40.4408C70.1156 39.6798 70.1229 38.8297 70.1229 37.8943C70.1229 36.9588 70.1156 36.0938 70.1011 35.344C70.0902 34.8502 70.0793 34.5124 70.072 34.3231C70.0648 34.1338 70.0539 34.0001 70.043 33.9259C70.1809 33.9408 70.3371 33.9482 70.5077 33.9482C70.6784 33.9482 70.8382 33.9408 70.9725 33.9259C70.9616 33.9964 70.9507 34.1264 70.9435 34.3194C70.9362 34.5087 70.9253 34.854 70.9144 35.3477C70.9035 35.9305 70.8963 36.5616 70.8963 37.2446C71.4264 37.3077 72.0364 37.3374 72.7154 37.3374C73.3944 37.3374 74.0081 37.3077 74.5491 37.2446L74.531 35.3477C74.5164 34.8502 74.5055 34.5087 74.4983 34.3194C74.491 34.1301 74.4838 34.0001 74.4729 33.9259C74.6072 33.9408 74.7561 33.9482 74.9231 33.9482C75.0901 33.9482 75.2463 33.9408 75.3806 33.9259C75.3661 34.0001 75.3552 34.1338 75.348 34.3231C75.3407 34.5124 75.3334 34.854 75.3225 35.344C75.3153 36.1013 75.3116 36.9514 75.3116 37.8905C75.308 38.8372 75.3116 39.6873 75.3225 40.4408C75.3334 40.9309 75.3407 41.2724 75.348 41.4617C75.3552 41.651 75.3661 41.7847 75.3806 41.8589C75.2463 41.8441 75.0938 41.8366 74.9231 41.8366C74.7525 41.8366 74.6072 41.8441 74.4729 41.8589C74.4838 41.7884 74.491 41.6584 74.4983 41.4691C74.5055 41.2798 74.5164 40.9383 74.531 40.4446C74.5455 39.717 74.5528 38.9077 74.5491 38.0093C74.019 37.9425 73.409 37.9128 72.73 37.9165C72.0437 37.9165 71.4337 37.9462 70.9035 38.0093C70.8926 38.9077 70.8963 39.7207 70.9144 40.4446C70.9253 40.9383 70.9362 41.2798 70.9435 41.4691C70.9507 41.6584 70.9616 41.7884 70.9725 41.8589C70.8382 41.8441 70.682 41.8366 70.5077 41.8366C70.3335 41.8366 70.1809 41.8441 70.043 41.8589C70.0539 41.7847 70.0648 41.651 70.0757 41.458C70.0793 41.2687 70.0865 40.9309 70.0974 40.4371L70.1011 40.4408Z"
          fill="white"/>
    <path d="M79.3056 41.4988C78.5757 41.4988 77.9875 41.1796 77.5481 40.5411C77.1088 39.9026 76.8873 39.0525 76.8873 37.9908C76.8873 36.8697 77.1088 35.9714 77.5481 35.2957C77.9875 34.6201 78.5757 34.286 79.3056 34.286C80.0354 34.286 80.6345 34.6053 81.0739 35.2438C81.5133 35.8823 81.7311 36.7361 81.7311 37.8015C81.7311 38.9226 81.5133 39.8209 81.0739 40.4928C80.6345 41.1647 80.0463 41.5026 79.3056 41.5026V41.4988ZM79.2547 42C80.2678 42 81.0884 41.6102 81.7166 40.8269C82.3448 40.0437 82.6607 39.0228 82.6607 37.7606C82.6607 36.5802 82.3557 35.6224 81.7457 34.8874C81.1356 34.1524 80.3404 33.7886 79.3528 33.7886C78.3651 33.7886 77.5227 34.1821 76.8946 34.9653C76.2664 35.7486 75.9541 36.7732 75.9541 38.0353C75.9541 39.2158 76.2591 40.1736 76.8691 40.9049C77.4791 41.6362 78.2744 42.0037 79.2547 42.0037V42Z"
          fill="white"/>
    <path d="M83.8155 40.4409C83.83 40.9198 83.8409 41.2576 83.8481 41.4469C83.8554 41.6362 83.8663 41.7736 83.8808 41.859C83.7864 41.8441 83.6811 41.8367 83.5649 41.8367C83.4487 41.8367 83.3398 41.8441 83.249 41.859C83.2599 41.7847 83.2708 41.6511 83.2781 41.4618C83.2853 41.2724 83.2962 40.9309 83.3071 40.4409C83.3216 39.6799 83.3289 38.8298 83.3289 37.8943C83.3289 36.9588 83.3216 36.1162 83.3071 35.37C83.2962 34.8763 83.2853 34.5385 83.2781 34.3454C83.2708 34.1561 83.2599 34.0225 83.249 33.9482H83.5177C84.2839 35.0619 85.2606 36.4243 86.4516 38.0317L87.9367 40.0066V37.976C87.9404 37.0034 87.9367 36.1236 87.9295 35.344C87.9149 34.8466 87.904 34.5051 87.8968 34.3157C87.8895 34.1264 87.8823 33.9965 87.8714 33.9222C87.9621 33.9371 88.0674 33.9445 88.1836 33.9445C88.2998 33.9445 88.4051 33.9371 88.4959 33.9222C88.485 33.9928 88.4778 34.1227 88.4705 34.3157C88.4632 34.5051 88.4523 34.8466 88.4414 35.344C88.4342 36.1236 88.4305 36.9997 88.4305 37.9723C88.4305 39.5797 88.4451 40.9235 88.4705 41.9963H88.2163C87.4538 40.8826 86.477 39.524 85.2824 37.9166L83.7937 35.9268V37.8906C83.7937 38.8372 83.8082 39.6836 83.8227 40.4409H83.8155Z"
          fill="white"/>
    <path d="M91.0818 38.6033C90.8167 38.0019 90.4935 37.2966 90.1123 36.491L89.5495 35.344C89.288 34.8168 89.1101 34.4605 89.0121 34.2711C88.914 34.0818 88.8523 33.9667 88.8232 33.9259C88.9866 33.9408 89.1718 33.9482 89.3824 33.9482C89.593 33.9482 89.7782 33.9408 89.9416 33.9259C89.9961 34.1375 90.0614 34.338 90.1304 34.5273C90.203 34.7166 90.3156 34.9913 90.4754 35.3477L90.8131 36.1272C91.1072 36.7992 91.3686 37.3746 91.601 37.8571V37.8497C91.8261 37.3931 92.073 36.8511 92.3417 36.2275L92.723 35.3477C92.861 35.0321 92.9663 34.7797 93.0389 34.5904C93.1079 34.4011 93.1769 34.1783 93.2423 33.9296C93.3621 33.9445 93.4928 33.9519 93.6417 33.9519C93.7905 33.9519 93.9213 33.9445 94.0338 33.9296C94.0048 33.9705 93.9394 34.0855 93.845 34.2749C93.747 34.4642 93.569 34.8205 93.3076 35.3477L92.7884 36.4131C92.4361 37.1518 92.1311 37.8052 91.8733 38.3731V39.0265C91.8733 39.9137 91.877 40.5448 91.8879 40.9197C91.8951 41.2984 91.9133 41.6102 91.9423 41.8626C91.8043 41.8478 91.6518 41.8403 91.4812 41.8403C91.3105 41.8403 91.1544 41.8478 91.02 41.8626C91.0491 41.6102 91.0672 41.2984 91.0781 40.9197C91.0854 40.5411 91.089 39.91 91.089 39.0265V38.6107L91.0818 38.6033Z"
          fill="white"/>
    <path d="M99.5814 41.4654C98.7898 41.4654 98.1544 41.1202 97.6787 40.4297C97.203 39.7392 96.9634 38.8186 96.9634 37.6715C96.9634 36.4614 97.203 35.4887 97.6787 34.7612C98.1544 34.0336 98.7898 33.6698 99.5814 33.6698C100.373 33.6698 101.019 34.015 101.491 34.7055C101.967 35.3959 102.203 36.3129 102.203 37.4636C102.203 38.6775 101.967 39.6464 101.491 40.374C101.016 41.1016 100.38 41.4654 99.5814 41.4654ZM99.5269 42C100.62 42 101.506 41.5768 102.185 40.7304C102.864 39.884 103.205 38.7815 103.205 37.4191C103.205 36.1458 102.875 35.1138 102.218 34.3231C101.56 33.5324 100.7 33.1389 99.6358 33.1389C98.5719 33.1389 97.6569 33.5621 96.9815 34.4085C96.3025 35.2549 95.9648 36.3574 95.9648 37.7198C95.9648 38.9931 96.2953 40.0251 96.9525 40.8158C97.6133 41.6065 98.4703 42 99.5269 42Z"
          fill="white"/>
    <path d="M104.527 34.4864C104.753 34.4642 105.003 34.4493 105.279 34.4456C105.751 34.4456 106.114 34.5644 106.365 34.8057C106.619 35.047 106.742 35.3922 106.742 35.8414C106.742 36.3277 106.579 36.7175 106.252 37.007C105.925 37.2966 105.486 37.4451 104.938 37.4451C104.796 37.4451 104.658 37.4451 104.527 37.4599V34.4827V34.4864ZM103.71 41.4654C103.703 41.6584 103.692 41.7884 103.681 41.8589C103.816 41.8441 103.972 41.8366 104.146 41.8366C104.32 41.8366 104.473 41.8441 104.611 41.8589C104.6 41.7847 104.589 41.651 104.582 41.4617C104.575 41.2724 104.564 40.9309 104.553 40.4408C104.538 39.7058 104.531 38.878 104.531 37.9611H104.52H104.829C105.137 38.4251 105.482 38.9782 105.871 39.613L106.372 40.4408C106.612 40.8195 106.782 41.1053 106.891 41.2946C106.997 41.484 107.091 41.6733 107.167 41.8626C107.331 41.8478 107.516 41.8403 107.73 41.8403C107.944 41.8403 108.133 41.8478 108.293 41.8626C108.26 41.8218 108.18 41.7067 108.053 41.5174C107.926 41.3281 107.69 40.9717 107.349 40.4446L106.859 39.6724C106.437 39.0005 106.074 38.4065 105.773 37.8943C106.205 37.8015 106.583 37.627 106.898 37.3708C107.389 36.9699 107.632 36.4465 107.632 35.8006C107.632 35.1546 107.465 34.7092 107.135 34.3974C106.804 34.0855 106.307 33.9296 105.639 33.9296C105.533 33.9296 105.41 33.9296 105.275 33.9333C105.141 33.9333 104.989 33.9408 104.822 33.9519C104.72 33.9593 104.571 33.9593 104.382 33.9519C104.193 33.9482 103.957 33.937 103.678 33.9259C103.689 33.9964 103.7 34.1264 103.707 34.3157C103.714 34.505 103.725 34.8465 103.736 35.344C103.743 36.0938 103.747 36.9439 103.747 37.8943C103.747 38.8446 103.743 39.6761 103.736 40.4408C103.725 40.9346 103.714 41.2761 103.707 41.4654H103.71Z"
          fill="white"/>
    <path d="M113.376 40.6859C113.355 40.8121 113.336 40.9272 113.326 41.0237C113.315 41.1202 113.304 41.2353 113.296 41.3653C112.988 41.5843 112.668 41.7439 112.342 41.8441C112.015 41.9444 111.652 41.9963 111.249 41.9963C110.319 41.9963 109.564 41.6288 108.983 40.8975C108.402 40.1625 108.111 39.2047 108.111 38.0243C108.111 36.7621 108.42 35.7412 109.037 34.958C109.655 34.1747 110.457 33.7849 111.448 33.7849C111.826 33.7849 112.178 33.8257 112.505 33.9074C112.832 33.9891 113.155 34.119 113.478 34.2972C113.431 34.4828 113.391 34.6387 113.362 34.7761C113.333 34.9097 113.304 35.0693 113.275 35.2587L113.126 35.2698C112.93 34.9691 112.683 34.7315 112.381 34.5533C112.08 34.3752 111.775 34.2861 111.466 34.2861C110.733 34.2861 110.145 34.6239 109.705 35.2958C109.266 35.9714 109.045 36.8698 109.045 37.9908C109.045 39.008 109.27 39.847 109.716 40.5077C110.163 41.1685 110.729 41.4989 111.412 41.4989C111.771 41.4989 112.12 41.4135 112.454 41.2428C112.792 41.072 113.071 40.8418 113.293 40.5486L113.369 40.6859H113.376Z"
          fill="white"/>
    <path d="M113.914 40.4408C113.928 39.6798 113.935 38.8297 113.935 37.8943C113.935 36.9588 113.928 36.0938 113.914 35.344C113.903 34.8502 113.892 34.5124 113.885 34.3231C113.877 34.1338 113.866 34.0001 113.855 33.9259C113.993 33.9408 114.15 33.9482 114.32 33.9482C114.491 33.9482 114.651 33.9408 114.785 33.9259C114.774 33.9964 114.763 34.1264 114.756 34.3194C114.749 34.5087 114.738 34.854 114.727 35.3477C114.716 35.9305 114.709 36.5616 114.709 37.2446C115.239 37.3077 115.849 37.3374 116.528 37.3374C117.207 37.3374 117.821 37.3077 118.362 37.2446L118.343 35.3477C118.329 34.8502 118.318 34.5087 118.311 34.3194C118.304 34.1301 118.296 34.0001 118.285 33.9259C118.42 33.9408 118.569 33.9482 118.736 33.9482C118.903 33.9482 119.059 33.9408 119.193 33.9259C119.179 34.0001 119.168 34.1338 119.16 34.3231C119.153 34.5124 119.146 34.854 119.135 35.344C119.128 36.1013 119.124 36.9514 119.124 37.8905C119.121 38.8372 119.124 39.6873 119.135 40.4408C119.146 40.9309 119.153 41.2724 119.16 41.4617C119.168 41.651 119.179 41.7847 119.193 41.8589C119.059 41.8441 118.906 41.8366 118.736 41.8366C118.565 41.8366 118.42 41.8441 118.285 41.8589C118.296 41.7884 118.304 41.6584 118.311 41.4691C118.318 41.2798 118.329 40.9383 118.343 40.4446C118.358 39.717 118.365 38.9077 118.362 38.0093C117.831 37.9425 117.221 37.9128 116.542 37.9165C115.856 37.9165 115.246 37.9462 114.716 38.0093C114.705 38.9077 114.709 39.7207 114.727 40.4446C114.738 40.9383 114.749 41.2798 114.756 41.4691C114.763 41.6584 114.774 41.7884 114.785 41.8589C114.651 41.8441 114.495 41.8366 114.32 41.8366C114.146 41.8366 113.993 41.8441 113.855 41.8589C113.866 41.7847 113.877 41.651 113.888 41.458C113.888 41.2687 113.899 40.9309 113.91 40.4371L113.914 40.4408Z"
          fill="white"/>
    <path d="M120.007 41.9295C120.017 41.8553 120.028 41.7217 120.036 41.5323C120.043 41.343 120.054 41.0015 120.065 40.5078C120.079 39.7319 120.086 38.8595 120.086 37.8906C120.086 36.9218 120.079 36.0457 120.065 35.2772C120.054 34.7835 120.043 34.442 120.036 34.2527C120.028 34.0634 120.017 33.9297 120.007 33.8555C120.112 33.8815 120.29 33.9037 120.537 33.9223C120.784 33.9408 121.031 33.9483 121.285 33.9483H121.967C122.24 33.9483 122.483 33.9409 122.701 33.926C122.919 33.9112 123.104 33.8889 123.264 33.8555C123.249 33.9705 123.242 34.1005 123.242 34.2453C123.242 34.39 123.249 34.52 123.264 34.6313C123.162 34.6016 122.98 34.5756 122.719 34.5571C122.461 34.5385 122.207 34.5274 121.967 34.5274H121.648C121.372 34.5274 121.118 34.5274 120.878 34.5459L120.856 37.434L121.644 37.4266C121.909 37.4266 122.182 37.4192 122.458 37.4006C122.733 37.3821 122.926 37.3598 123.035 37.3338C123.02 37.4452 123.013 37.5751 123.013 37.7199C123.013 37.8647 123.02 37.9872 123.035 38.0985C122.93 38.0725 122.737 38.0503 122.458 38.0317C122.182 38.0131 121.909 38.0057 121.644 38.0057L120.86 37.9983C120.86 39.2419 120.86 40.3221 120.878 41.2428L121.481 41.2539H121.779C122.054 41.2539 122.341 41.2428 122.635 41.2168C122.933 41.1945 123.14 41.1648 123.26 41.1351C123.245 41.2539 123.238 41.3876 123.238 41.5398C123.238 41.692 123.245 41.8182 123.26 41.937C123.137 41.911 122.94 41.8887 122.679 41.8701C122.418 41.8516 122.178 41.8442 121.964 41.8442L121.281 41.833C121.049 41.833 120.809 41.8404 120.562 41.859C120.315 41.8776 120.126 41.8998 120.003 41.9258L120.007 41.9295Z"
          fill="white"/>
    <path d="M126.618 35.1732C126.499 34.8911 126.339 34.6758 126.143 34.5199C125.947 34.364 125.732 34.286 125.504 34.286C125.173 34.286 124.905 34.4159 124.694 34.6721C124.483 34.9282 124.378 35.2586 124.378 35.6595C124.378 36.0159 124.48 36.324 124.679 36.5764C124.886 36.8289 125.21 37.0516 125.649 37.2446C126.208 37.4897 126.604 37.7866 126.836 38.1356C127.072 38.4808 127.189 38.9411 127.189 39.5165C127.189 40.2144 126.992 40.8009 126.604 41.2798C126.215 41.7587 125.736 42 125.173 42C124.817 42 124.505 41.9406 124.24 41.8181C123.975 41.6993 123.757 41.5211 123.594 41.2873C123.626 41.1313 123.652 41.0014 123.67 40.89C123.688 40.7787 123.706 40.645 123.724 40.4928L123.862 40.4372C123.997 40.7527 124.193 41.0088 124.447 41.2056C124.701 41.4023 124.966 41.5026 125.242 41.5026C125.62 41.5026 125.929 41.3504 126.168 41.046C126.408 40.7416 126.528 40.3481 126.528 39.8692C126.528 39.4757 126.426 39.149 126.226 38.8817C126.023 38.6145 125.7 38.3806 125.257 38.1876C124.69 37.9388 124.291 37.6456 124.051 37.3003C123.812 36.9625 123.692 36.5096 123.692 35.9454C123.692 35.344 123.866 34.8317 124.215 34.4159C124.563 34.0002 124.992 33.7886 125.5 33.7886C125.772 33.7886 126.03 33.8331 126.27 33.9185C126.513 34.0039 126.735 34.1338 126.938 34.3009C126.894 34.4679 126.858 34.609 126.829 34.7278C126.8 34.8466 126.775 34.995 126.742 35.1658L126.615 35.1732H126.618Z"
          fill="white"/>
    <path d="M129.161 40.4409C129.168 39.6799 129.172 38.8298 129.172 37.8944C129.172 36.5839 129.164 35.4554 129.139 34.5125L128.671 34.52C128.377 34.52 128.082 34.5311 127.785 34.5459C127.487 34.5645 127.287 34.5868 127.186 34.6128C127.2 34.5051 127.207 34.3789 127.207 34.2341C127.207 34.0893 127.2 33.9668 127.186 33.8555C127.516 33.8815 127.89 33.9037 128.304 33.9223C128.718 33.9408 129.037 33.9483 129.263 33.9483H129.724C129.967 33.9483 130.294 33.9408 130.708 33.9223C131.122 33.9037 131.485 33.8815 131.797 33.8555C131.782 33.9631 131.775 34.0893 131.775 34.2341C131.775 34.3789 131.782 34.5014 131.797 34.6128C131.688 34.5868 131.485 34.5645 131.191 34.5459C130.896 34.5274 130.602 34.52 130.316 34.52H129.971C129.956 35.4591 129.949 36.5839 129.949 37.8906C129.949 38.8373 129.952 39.6874 129.96 40.4447C129.971 40.9384 129.978 41.2799 129.985 41.4692C129.992 41.6585 130.003 41.7922 130.014 41.8664C129.88 41.8516 129.727 41.8442 129.557 41.8442C129.386 41.8442 129.241 41.8516 129.106 41.8664C129.117 41.7922 129.128 41.6585 129.139 41.4655C129.139 41.2762 129.15 40.9384 129.164 40.4447L129.161 40.4409Z"
          fill="white"/>
    <path d="M132.955 34.4864C133.18 34.4642 133.431 34.4493 133.707 34.4456C134.179 34.4456 134.542 34.5644 134.792 34.8057C135.047 35.047 135.17 35.3922 135.17 35.8414C135.17 36.3277 135.007 36.7175 134.68 37.007C134.353 37.2966 133.914 37.4451 133.365 37.4451C133.224 37.4451 133.086 37.4451 132.955 37.4599V34.4827V34.4864ZM132.138 41.4654C132.131 41.6584 132.12 41.7884 132.109 41.8589C132.243 41.8441 132.4 41.8366 132.574 41.8366C132.748 41.8366 132.901 41.8441 133.039 41.8589C133.028 41.7847 133.017 41.651 133.01 41.4617C133.002 41.2724 132.991 40.9309 132.981 40.4408C132.966 39.7058 132.959 38.878 132.959 37.9611H132.948H133.257C133.565 38.4251 133.91 38.9782 134.299 39.613L134.8 40.4408C135.039 40.8195 135.21 41.1053 135.319 41.2946C135.424 41.484 135.519 41.6733 135.595 41.8626C135.758 41.8478 135.944 41.8403 136.158 41.8403C136.372 41.8403 136.561 41.8478 136.721 41.8626C136.688 41.8218 136.608 41.7067 136.481 41.5174C136.354 41.3281 136.118 40.9717 135.776 40.4446L135.286 39.6724C134.861 39.0005 134.502 38.4065 134.201 37.8943C134.633 37.8015 135.01 37.627 135.326 37.3708C135.816 36.9699 136.06 36.4465 136.06 35.8006C136.06 35.1546 135.893 34.7092 135.562 34.3974C135.232 34.0855 134.734 33.9296 134.066 33.9296C133.961 33.9296 133.837 33.9296 133.703 33.9333C133.569 33.9333 133.416 33.9408 133.249 33.9519C133.148 33.9593 132.999 33.9593 132.81 33.9519C132.621 33.9482 132.385 33.937 132.105 33.9259C132.116 33.9964 132.127 34.1264 132.135 34.3157C132.142 34.505 132.153 34.8465 132.164 35.344C132.171 36.0938 132.174 36.9439 132.174 37.8943C132.174 38.8446 132.171 39.6761 132.164 40.4408C132.153 40.9346 132.142 41.2761 132.135 41.4654H132.138Z"
          fill="white"/>
    <path d="M138.993 35.5778L139.774 37.8757L139.861 38.1467C139.588 38.1912 139.294 38.2172 138.978 38.2246C138.659 38.2321 138.361 38.2098 138.092 38.1578L138.191 37.8646C138.47 37.0219 138.612 36.5987 138.612 36.5987C138.612 36.5987 138.735 36.2572 138.986 35.5778H138.993ZM136.415 41.4914C136.342 41.6844 136.291 41.8032 136.259 41.8589C136.36 41.8441 136.48 41.8366 136.611 41.8366C136.742 41.8366 136.869 41.8441 136.974 41.8589C137.014 41.6287 137.061 41.4209 137.108 41.2315C137.156 41.0422 137.239 40.7786 137.348 40.4408C137.493 39.962 137.66 39.446 137.846 38.9003C138.176 38.8149 138.557 38.7815 138.986 38.8037C139.4 38.8112 139.774 38.8446 140.108 38.9003L140.609 40.4408C140.729 40.8083 140.816 41.0868 140.867 41.2761C140.917 41.4654 140.961 41.6584 140.997 41.8589C141.143 41.8441 141.306 41.8366 141.495 41.8366C141.684 41.8366 141.843 41.8441 141.992 41.8589L141.469 40.4371C141.201 39.691 140.91 38.8483 140.591 37.9128C140.05 36.3351 139.614 35.0136 139.283 33.9445H139.069C138.739 35.021 138.292 36.35 137.733 37.924C137.406 38.8557 137.101 39.6947 136.818 40.4371C136.618 40.9531 136.48 41.3021 136.404 41.4914H136.415Z"
          fill="white"/>
    <path d="M68.7757 25.0872C67.0763 25.0872 65.7256 26.5016 65.7256 28.2797C65.7256 28.5878 65.7692 28.8811 65.8454 29.1595C66.125 27.7452 67.3305 26.6946 68.8011 26.6946C70.2717 26.6946 71.4155 27.6932 71.7314 29.0556C71.7895 28.8068 71.8258 28.547 71.8258 28.276C71.8258 26.4978 70.475 25.0835 68.7757 25.0835V25.0872Z"
          fill="white"/>
    <path d="M65.8417 29.3451C65.7618 29.3451 65.6892 29.2894 65.6674 29.2077C65.5839 28.8996 65.5439 28.5878 65.5439 28.2759C65.5439 26.3827 66.9637 24.8978 68.7756 24.8978C70.5875 24.8978 72.0072 26.3827 72.0072 28.2759C72.0072 28.5432 71.9746 28.8216 71.9092 29.1001C71.891 29.1817 71.8148 29.2411 71.7313 29.2411C71.6478 29.2411 71.5751 29.1817 71.5534 29.1001C71.252 27.7934 70.1191 26.8802 68.7974 26.8802C67.4757 26.8802 66.2883 27.8305 66.0196 29.1966C66.0015 29.282 65.9325 29.3413 65.849 29.3451C65.849 29.3451 65.8453 29.3451 65.8417 29.3451ZM68.7756 25.2728C67.167 25.2728 65.9071 26.5943 65.9071 28.2797C65.9071 28.3094 65.9071 28.339 65.9071 28.3687C66.4227 27.2439 67.5229 26.5126 68.801 26.5126C70.0791 26.5126 71.1104 27.2105 71.6441 28.2797C71.6441 26.5943 70.3842 25.2728 68.7756 25.2728Z"
          fill="white"/>
    <path d="M68.925 2.60603C83.5436 2.60603 95.3845 14.667 95.479 29.605C95.6532 29.2003 95.7513 28.7549 95.7513 28.2797C95.7513 12.7515 83.7434 0.185669 68.8996 0.185669C54.0558 0.185669 42.0479 12.7515 42.0479 28.2797C42.0479 28.792 42.164 29.2746 42.3674 29.7052C42.411 14.7227 54.27 2.60603 68.925 2.60603Z"
          fill="white"/>
    <path d="M42.3673 29.887C42.2983 29.887 42.2329 29.8462 42.2039 29.7831C41.9824 29.3116 41.8662 28.8031 41.8662 28.2797C41.8662 12.6846 53.994 0 68.8995 0C83.805 0 95.9328 12.6846 95.9328 28.2797C95.9328 28.766 95.8347 29.2337 95.6459 29.6792C95.6096 29.7608 95.5261 29.8054 95.4426 29.7868C95.359 29.7682 95.2973 29.694 95.2973 29.6049C95.2029 14.8192 83.3729 2.79159 68.9249 2.79159C54.4769 2.79159 42.5888 14.8637 42.5488 29.7051C42.5488 29.7905 42.4908 29.8648 42.4072 29.887C42.3927 29.887 42.3818 29.8908 42.3673 29.8908V29.887ZM68.8995 0.371221C54.2227 0.371221 42.2765 12.8443 42.2293 28.1906C43.039 13.8466 54.7202 2.42036 68.9249 2.42036C83.1296 2.42036 94.346 13.4122 95.5551 27.3553C95.0867 12.3914 83.3112 0.371221 68.8995 0.371221Z"
          fill="white"/>
    <path d="M78.8084 11.3668C75.8781 9.71861 72.5085 8.77942 68.9246 8.77942C65.3408 8.77942 61.6734 9.8077 58.6523 11.5933C53.4127 15.1236 49.9414 21.2747 49.9414 28.2797C49.9414 28.7177 50.0249 29.1335 50.1774 29.5121C50.3227 19.04 58.656 10.5947 68.9246 10.5947C79.1933 10.5947 87.4576 18.9732 87.6645 29.3896C87.788 29.0444 87.857 28.6732 87.857 28.2834C87.857 21.13 84.2368 14.86 78.8084 11.3705V11.3668Z"
          fill="white"/>
    <path d="M50.1773 29.694C50.1047 29.694 50.0394 29.6495 50.0103 29.579C49.8433 29.1669 49.7598 28.7289 49.7598 28.276C49.7598 21.4418 53.0459 15.1459 58.5542 11.4374C61.7023 9.57382 65.2862 8.59009 68.9282 8.59009C72.5701 8.59009 75.8635 9.49216 78.9027 11.1998C84.6325 14.8823 88.0457 21.2636 88.0457 28.276C88.0457 28.6732 87.9767 29.0667 87.8424 29.4453C87.8133 29.5307 87.7298 29.579 87.6427 29.5641C87.5555 29.5493 87.4938 29.475 87.4901 29.3859C87.3921 24.393 85.4168 19.7156 81.931 16.2113C78.4415 12.7032 73.8228 10.7729 68.9318 10.7729C58.8374 10.7729 50.5078 19.1773 50.3662 29.5084C50.3662 29.5975 50.3044 29.6718 50.2173 29.6866C50.2064 29.6866 50.1955 29.6866 50.1846 29.6866L50.1773 29.694ZM68.9245 8.96502C65.3479 8.96502 61.8258 9.9302 58.743 11.7566C53.5942 15.2275 50.4206 21.0149 50.141 27.3702C51.3139 17.8409 59.3385 10.4091 68.9245 10.4091C73.9136 10.4091 78.6195 12.3765 82.1779 15.9551C85.1118 18.9026 86.9963 22.6668 87.6209 26.7577C87.1634 20.484 83.9063 14.8674 78.7102 11.5302C75.7364 9.85595 72.3486 8.96873 68.9209 8.96873L68.9245 8.96502Z"
          fill="white"/>
    <path d="M71.7644 17.0947C70.8494 16.8831 69.8981 16.7681 68.9249 16.7681C67.8719 16.7681 66.8443 16.9017 65.8603 17.1504C61.2343 18.5388 57.832 23.0009 57.832 28.2796C57.832 28.636 57.8901 28.9738 57.9882 29.2931C58.2423 23.3461 63.0499 18.5796 68.9213 18.5796C74.7927 18.5796 79.524 23.2682 79.8472 29.1483C79.9198 28.8699 79.9634 28.5803 79.9634 28.2759C79.9634 22.9303 76.4775 18.4163 71.7608 17.091L71.7644 17.0947Z"
          fill="white"/>
    <path d="M57.9878 29.4786C57.9116 29.4786 57.8389 29.4267 57.8135 29.3487C57.7046 28.9998 57.6465 28.6397 57.6465 28.2759C57.6465 23.0565 61.0016 18.4051 65.8055 16.9685C67.7735 16.4748 69.8106 16.4525 71.8004 16.9128C76.7168 18.2937 80.1446 22.9674 80.1446 28.2796C80.1446 28.584 80.1046 28.8921 80.0211 29.2002C79.9993 29.2893 79.9194 29.345 79.8287 29.3376C79.7415 29.3264 79.6725 29.2559 79.6653 29.1631C79.3457 23.3349 74.6253 18.7689 68.9209 18.7689C63.2165 18.7689 58.4199 23.398 58.1694 29.3042C58.1657 29.3933 58.1004 29.4675 58.0132 29.4786C58.006 29.4786 57.9987 29.4786 57.9878 29.4786ZM68.9246 16.9536C67.9115 16.9536 66.8948 17.0798 65.9035 17.3286C61.5499 18.6353 58.4199 22.6816 58.0532 27.3515C59.1425 22.199 63.6014 18.3977 68.9246 18.3977C74.2477 18.3977 78.5033 22.0431 79.7197 27.0137C79.2259 22.4069 76.0741 18.4979 71.7169 17.2766C70.7982 17.065 69.8578 16.9573 68.9246 16.9573V16.9536Z"
          fill="white"/>
  </g>
  <defs>
    <clipPath id="clip0_1_5076">
      <rect width="142" height="42" fill="white"/>
    </clipPath>
  </defs>
</svg>
